<?xml version="1.0" encoding="utf-8"?>
<svg version="1.1" xmlns="http://www.w3.org/2000/svg" xmlns:xlink="http://www.w3.org/1999/xlink" x="0px" y="0px"
	 viewBox="0 0 100 100" style="enable-background:new 0 0 100 100;" xml:space="preserve">
<style type="text/css">
	.st0{fill:#594AFF;}
	.st1{fill:#FFFFFF;stroke:#FF9815;stroke-miterlimit:10;}
	.st2{display:none;}
	.st3{display:inline;fill:#FFFFFF;stroke:#000000;stroke-width:10;stroke-miterlimit:10;}
</style>
<g id="레이어_1">
	<g>
		<g>
			<path class="st0" d="M58.33,50.33c4.27-5.43,14.01-6.41,20.17-6.83c3.79-0.26,5.66-5.39,2.02-7.45c-17.67-10-35.33-20-53-30
				C24.89,4.56,21.5,6.44,21.5,9.5c0,20.33,0,40.67,0,61c0,4.01,5.41,5.39,7.45,2.02c3.81-6.27,9.45-13.71,16.61-16.16
				c-1.51-0.61-3.01-1.23-4.52-1.84c5.91,13.19,12.54,26.08,19,39c0.92,1.83,3.78,2.61,5.47,1.44c4.33-3,8.67-6,13-9
				c1.76-1.22,2.62-3.5,1.44-5.47c-7-11.67-14-23.33-21-35c-2.65-4.41-9.57-0.39-6.91,4.04c7,11.67,14,23.33,21,35
				c0.48-1.82,0.96-3.65,1.44-5.47c-4.33,3-8.67,6-13,9c1.82,0.48,3.65,0.96,5.47,1.44c-6.46-12.92-13.09-25.81-19-39
				c-0.68-1.51-2.99-2.36-4.52-1.84c-9.28,3.18-16.42,11.65-21.39,19.84c2.48,0.67,4.97,1.35,7.45,2.02c0-20.33,0-40.67,0-61
				c-2.01,1.15-4.01,2.3-6.02,3.45c17.67,10,35.33,20,53,30c0.67-2.48,1.35-4.97,2.02-7.45c-8.2,0.56-20.24,2.05-25.83,9.17
				C49.53,48.68,55.15,54.38,58.33,50.33z"/>
		</g>
	</g>
	<path class="st1" d="M0.5,45.5"/>
</g>
<g id="레이어_2" class="st2">
	<polyline class="st3" points="41.5,49.5 66.5,40.5 11.5,11.5 11.5,72.5 30.5,54.5 49.5,93.5 62.5,84.5 	"/>
</g>
</svg>
