<?xml version="1.0" encoding="utf-8"?>
<svg version="1.1" xmlns="http://www.w3.org/2000/svg" xmlns:xlink="http://www.w3.org/1999/xlink" x="0px" y="0px"
	 viewBox="0 0 100 100" style="enable-background:new 0 0 100 100;" xml:space="preserve">
<style type="text/css">
	.st0{display:none;}
	.st1{display:inline;fill:#FFFFFF;stroke:#000000;stroke-width:10;stroke-miterlimit:10;}
	.st2{display:inline;stroke:#1C6BDE;stroke-miterlimit:10;}
	.st3{display:inline;fill:#FFFFFF;}
	.st4{fill:#F6EF00;}
	.st5{fill:#1C6BDE;}
	.st6{fill:#FFFFFF;stroke:#FF9815;stroke-miterlimit:10;}
</style>
<g id="레이어_2" class="st0">
	<polyline class="st1" points="41.5,49.5 66.5,40.5 11.5,11.5 11.5,72.5 30.5,54.5 49.5,93.5 62.5,84.5 	"/>
</g>
<g id="레이어_4" class="st0">
	<rect x="-50.5" y="-23.5" class="st2" width="212" height="168"/>
</g>
<g id="레이어_3" class="st0">
	<path class="st3" d="M38.5,45.5c3.07-5.88,14.13-6.65,21-5c2.32,0.56,5.22,2.04,11,5c3.11,1.59,3.97,2.19,4,3
		c0.11,2.89-10.61,3.13-12,8c-0.8,2.79,2.1,4.81,8,13c5.82,8.08,9.85,13.79,8,17c-1.17,2.03-4.59,2.87-7,2
		c-3.47-1.25-3.24-5.43-7-13c-1.08-2.17-6.75-13.6-12-13c-1.13,0.13-1.09,0.69-5,3c-3.92,2.31-5.88,3.47-7,3
		c-1.51-0.63-1.51-3.07-2-13C38.08,46.91,37.97,46.51,38.5,45.5z"/>
	<path class="st3" d="M146,29"/>
</g>
<g id="레이어_1">
	<circle class="st4" cx="35.5" cy="25.5" r="18.5"/>
	<g>
		<g>
			<path class="st5" d="M63.21,59.34c3.46-4.37,11.25-5.11,16.24-5.46c3.78-0.27,5.67-5.39,2.02-7.45
				c-14.65-8.29-29.3-16.59-43.95-24.88c-2.63-1.49-6.02,0.39-6.02,3.45c0,16.86,0,33.72,0,50.59c0,4.01,5.41,5.38,7.45,2.02
				c3.08-5.07,7.6-11.06,13.37-13.09c-1.51-0.61-3.01-1.23-4.52-1.84c4.9,10.93,10.4,21.62,15.76,32.34
				c0.92,1.83,3.78,2.61,5.47,1.44c3.59-2.49,7.19-4.98,10.78-7.46c1.76-1.22,2.62-3.5,1.44-5.47c-5.8-9.67-11.61-19.35-17.41-29.02
				c-2.65-4.41-9.57-0.39-6.91,4.04c5.8,9.67,11.61,19.35,17.41,29.02c0.48-1.82,0.96-3.65,1.44-5.47
				c-3.59,2.49-7.19,4.98-10.78,7.46c1.82,0.48,3.65,0.96,5.47,1.44c-5.36-10.72-10.85-21.41-15.76-32.34
				c-0.67-1.5-2.99-2.38-4.52-1.84c-7.9,2.78-13.89,9.77-18.15,16.77c2.48,0.67,4.97,1.35,7.45,2.02c0-16.86,0-33.72,0-50.59
				c-2.01,1.15-4.01,2.3-6.02,3.45c14.65,8.29,29.3,16.59,43.95,24.88c0.67-2.48,1.35-4.97,2.02-7.45
				c-6.99,0.5-17.12,1.76-21.9,7.81C54.39,57.68,60.01,63.38,63.21,59.34z"/>
		</g>
	</g>
	<path class="st6" d="M21.17,60.5"/>
</g>
</svg>
